<?xml version="1.0" standalone="no"?>
<!DOCTYPE svg PUBLIC "-//W3C//DTD SVG 20010904//EN"
 "http://www.w3.org/TR/2001/REC-SVG-20010904/DTD/svg10.dtd">
<svg version="1.0" xmlns="http://www.w3.org/2000/svg"
 width="400.000000pt" height="400.000000pt" viewBox="0 0 400.000000 400.000000"
 preserveAspectRatio="xMidYMid meet">
<metadata>
Created by potrace 1.14, written by Peter Selinger 2001-2017
</metadata>
<g transform="translate(0.000000,400.000000) scale(0.100000,-0.100000)"
fill="#000000" stroke="none">
<path d="M0 2000 l0 -2000 2000 0 2000 0 0 2000 0 2000 -2000 0 -2000 0 0
-2000z m672 844 l3 -656 49 71 c99 146 249 253 422 303 105 30 331 32 439 4
281 -73 489 -301 565 -618 11 -46 23 -114 28 -153 7 -59 10 -65 16 -40 27 113
84 266 130 343 65 111 220 269 321 328 148 87 302 131 491 141 183 9 393 -25
507 -83 l27 -15 0 -164 0 -164 -72 45 c-137 83 -293 121 -453 111 -173 -12
-296 -68 -421 -192 -66 -66 -89 -98 -128 -175 -59 -121 -85 -225 -93 -370 -14
-277 55 -488 210 -642 222 -221 622 -237 915 -36 l42 29 0 -154 0 -154 -79
-36 c-307 -141 -709 -126 -978 34 -73 45 -203 167 -258 243 -86 123 -147 274
-169 424 l-13 87 -7 -49 c-13 -86 -46 -195 -84 -285 -126 -291 -364 -481 -655
-520 -311 -43 -548 48 -714 273 l-43 58 0 -146 0 -146 -160 0 -160 0 0 1480 0
1480 160 0 160 0 2 -656z"/>
<path d="M1143 2305 c-165 -36 -313 -155 -392 -316 -67 -138 -73 -173 -78
-449 -4 -197 -2 -260 11 -320 48 -229 232 -414 448 -450 329 -56 597 134 687
485 48 189 53 449 12 610 -88 341 -356 512 -688 440z"/>
</g>
</svg>
